<?xml version="1.0" encoding="UTF-8"?>
<svg width="116.22mm" height="104.86mm" version="1.1" viewBox="0 0 411.78845 371.56032" xmlns="http://www.w3.org/2000/svg">
 <g transform="translate(123.04 -118.01)" fill-rule="evenodd">
  <path d="m80.569 440.01c97.792 0 177.1 11.096 177.1 24.78 0 13.683-79.307 24.78-177.1 24.78s-177.1-11.097-177.1-24.78c0-13.684 79.307-24.78 177.1-24.78" fill="#003d26" fill-opacity=".25"/>
  <path d="m10.326 225.4c40.127-42.558 104.53-43.243 143.82-1.5196 39.292 41.709 39.292 104.28 0 139.75-39.292 35.467-103.69 36.152-143.82 1.5196-40.141-34.619-40.141-97.189 0-139.75" fill="#cf4008"/>
  <path d="m54.98 361.31h65.701l17.718 101.1h-104.68l21.265-101.1z" fill="#630"/>
  <g fill="#cf4008">
   <path d="m-28.706 267.93c30.448-32.62 79.282-33.14 109.1-1.1632 29.804 31.962 29.804 79.914 0 107.1-29.818 27.186-78.652 27.707-109.1 1.1632-30.448-26.528-30.448-74.479 0-107.1"/>
   <path d="m-25.871 208.19c17.127-18.11 44.603-18.411 61.361-0.65688 16.771 17.754 16.771 44.378 0 59.477-16.757 15.085-44.234 15.372-61.361 0.6435-17.127-14.729-17.127-41.367 0-59.463"/>
   <path d="m4.2572 172.38c9.03-9.5485 23.517-9.7072 32.352-0.34612 8.8421 9.3604 8.8421 23.397 0 31.358-8.8348 7.9534-23.322 8.1054-32.352 0.3395-9.0299-7.7655-9.0299-21.81 0-31.351"/>
   <path d="m173.37 200.37c9.0299-9.5489 23.517-9.7076 32.352-0.3465 8.8415 9.3604 8.8415 23.398 0 31.359-8.835 7.9529-23.322 8.1046-32.352 0.33912-9.03-7.7659-9.03-21.81 0-31.351"/>
   <path d="m110.1 144.07c5.3441-5.6508 13.918-5.7444 19.147-0.20437 5.2329 5.5396 5.2329 13.848 0 18.559-5.2292 4.7072-13.803 4.7966-19.147 0.20088-5.3444-4.596-5.3444-12.908 0-18.555"/>
   <path d="m203.58 354.93c8.1213-8.5884 21.151-8.7308 29.097-0.31225 7.9538 8.4196 7.9538 21.045 0 28.205-7.9452 7.1525-20.975 7.29-29.097 0.30475-8.1222-6.9846-8.1222-19.616 0-28.197"/>
   <path d="m133.64 163.75c5.3416-5.649 13.911-5.743 19.137-0.20512 5.2302 5.5364 5.2302 13.84 0 18.549-5.2265 4.7041-13.796 4.7938-19.137 0.20087-5.3413-4.5942-5.3413-12.902 0-18.545"/>
   <path d="m170.36 248.06c10.873-11.497 28.316-11.688 38.954-0.417 10.647 11.271 10.647 28.173 0 37.758-10.638 9.5761-28.081 9.7586-38.954 0.40888-10.873-9.3511-10.873-26.262 0-37.75"/>
   <path d="m175.93 289.91c20.942-22.144 54.538-22.512 75.026-0.803 20.506 21.707 20.506 54.261 0 72.723-20.488 18.444-54.084 18.796-75.026 0.787-20.941-18.01-20.941-50.58 0-72.707"/>
   <path d="m63.134 341.84c12.715-13.446 33.115-13.67 45.557-0.488 12.451 13.181 12.451 32.948 0 44.158-12.441 11.199-32.842 11.413-45.557 0.47763s-12.715-30.712 0-44.147"/>
   <path d="m-62.797 338.22c12.715-13.446 33.115-13.669 45.557-0.488 12.451 13.181 12.451 32.948 0 44.157-12.442 11.2-32.842 11.413-45.557 0.478-12.716-10.935-12.716-30.712 0-44.147"/>
   <path d="m-67.581 254.51c12.715-13.446 33.115-13.669 45.557-0.488 12.451 13.181 12.451 32.948 0 44.157-12.442 11.2-32.842 11.413-45.557 0.47788-12.716-10.935-12.716-30.712 0-44.147"/>
   <path d="m-78.669 304.22c10.86-11.483 28.282-11.674 38.908-0.41662 10.634 11.258 10.634 28.14 0 37.713-10.625 9.5651-28.048 9.7472-38.908 0.40825-10.86-9.3395-10.86-26.23 0-37.705"/>
   <path d="m-104.98 273.13c10.86-11.484 28.282-11.674 38.908-0.41663 10.634 11.258 10.634 28.14 0 37.713-10.625 9.5651-28.048 9.7472-38.908 0.40825-10.86-9.3395-10.86-26.23 0-37.705"/>
   <path d="m241.87 311.39c10.86-11.483 28.282-11.674 38.908-0.41675 10.634 11.258 10.634 28.14 0 37.713-10.625 9.5651-28.048 9.7472-38.908 0.40812-10.86-9.3394-10.86-26.23 0-37.705"/>
   <path d="m-89.393 343.19c6.2162-6.5729 16.189-6.682 22.27-0.2385 6.0861 6.4435 6.0861 16.106 0 21.586-6.0819 5.4748-16.054 5.5794-22.27 0.2335-6.2158-5.3458-6.2158-15.014 0-21.582"/>
   <path d="m212.01 257.09c6.2162-6.5729 16.189-6.682 22.27-0.2385 6.0861 6.4435 6.0861 16.106 0 21.586-6.0819 5.4749-16.054 5.5794-22.27 0.2335-6.2158-5.3458-6.2158-15.014 0-21.582"/>
   <path d="m-52.651 230.61c4.6063-4.8712 11.998-4.9521 16.505-0.17675 4.5105 4.7752 4.5105 11.937 0 15.998-4.5074 4.0578-11.899 4.135-16.505 0.17363-4.6073-3.9625-4.6073-11.127 0-15.995"/>
   <path d="m142.35 339.71c14.558-15.395 37.915-15.65 52.16-0.55837 14.256 15.092 14.256 37.723 0 50.558-14.244 12.822-37.601 13.067-52.16 0.54675-14.558-12.52-14.558-35.163 0-50.546"/>
   <path d="m0.74529 199.33c-2.8935 3.0596-7.5352 3.1106-10.366 0.11125-2.8333-2.9994-2.8333-7.4976 0-10.048 2.8312-2.5488 7.4728-2.5976 10.366-0.10913 2.8935 2.4881 2.8935 6.9881 0 10.046"/>
   <path d="m37.461 152.97c24.424-26.159 63.606-26.584 87.523-0.93075 23.918 25.638 23.918 64.117 0 85.923-23.917 21.806-63.099 22.217-87.523 0.93088s-24.424-59.764 0-85.923"/>
   <path d="m97.946 199.09c24.424-26.172 63.606-26.583 87.523-0.94475 23.904 25.653 23.904 64.118 0 85.924-23.917 21.806-63.1 22.231-87.523 0.94425-24.424-21.299-24.424-59.764 0-85.923"/>
   <path d="m89.253 270.64c29.078-31.156 75.735-31.648 104.21-1.1229 28.462 30.539 28.462 76.341 0 102.31-28.477 25.967-75.134 26.46-104.21 1.1088-29.079-25.351-29.079-71.14 0-102.29"/>
  </g>
  <g fill="#630">
   <path d="m-13.776 465.31 59.054-26.088 22.816 20.871-81.87 5.2175z"/>
   <path d="m166.51 465.31-45.796-26.088-5.2052 19.566 51.001 6.5219z"/>
   <path d="m110.35 475.37-4.355-20.871-21.145 7.8269 25.5 13.044z"/>
  </g>
  <g fill="#e3540d">
   <path d="m-8.0827 214.73c3.2026-2.9984 8.6756-10.558 11.93-12.508 3.9084-2.3425 9.0562-1.0541 11.399 2.8538 2.3428 3.9084 1.0543 9.055-2.8542 11.398-4.6694 2.7985-16.316 0.26337-20.475-1.7436"/>
   <path d="m-17.613 187.77c5.449-1.6544 16.157-7.3151 21.065-7.7201 5.8948-0.4855 11.147 3.9666 11.633 9.8602 0.48594 5.894-3.9669 11.146-9.8617 11.632-7.0405 0.58-19.146-9.0508-22.836-13.772"/>
   <path d="m5.6411 161.43c5.3164 2.0391 17.245 4.1456 21.366 6.8396 4.9511 3.2354 6.3629 9.9751 3.1267 14.925-3.2358 4.95-9.9765 6.3616-14.927 3.1252-5.9125-3.8644-9.5527-18.897-9.5657-24.89"/>
   <path d="m31.114 147.37c2.9438 4.8739 11.066 13.86 12.664 18.517 1.9208 5.5924-1.1043 11.779-6.6982 13.698-5.5942 1.9205-11.781-1.1034-13.701-6.6969-2.2936-6.6805 4.0658-20.78 7.7351-25.518"/>
   <path d="m64.209 154.99c-4.4865 1.6735-14.533 3.3534-18.019 5.5864-4.188 2.6826-5.4269 8.3385-2.7435 12.526 2.6823 4.1875 8.3392 5.4259 12.527 2.7439 5.0018-3.2041 8.1788-15.817 8.2359-20.856"/>
   <path d="m73.044 193.45c-4.1945-1.3575-12.404-5.8925-16.197-6.2752-4.5566-0.4595-8.6858 2.913-9.1459 7.4686-0.45956 4.556 2.913 8.6846 7.4697 9.1441 5.4415 0.54963 14.95-6.734 17.874-10.338"/>
  </g>
  <g fill="#e66e24">
   <path d="m61.522 173.34c-3.8124 2.1788-12.657 5.1824-15.483 7.7191-3.3932 3.0472-3.6792 8.3494-0.63147 11.742 3.0473 3.3934 8.3498 3.6786 11.743 0.63175 4.0534-3.6394 5.0645-15.524 4.371-20.093"/>
   <path d="m5.8335 174.4c0.91888 5.6184 0.56233 17.725 2.3645 22.307 2.1648 5.5031 8.4782 8.252 13.982 6.0881 5.5046-2.1646 8.2543-8.4774 6.089-13.981-2.5855-6.5725-16.57-13.186-22.436-14.413"/>
   <path d="m30.77 177.12c-1.7889 5.4054-7.7145 15.968-8.2407 20.863-0.63159 5.8801 3.689 11.241 9.57 11.873 5.8806 0.63137 11.242-3.6896 11.874-9.5691 0.75486-7.0228-8.5736-19.361-13.204-23.168"/>
  </g>
  <g fill="#e3540d">
   <path d="m118.91 167c-2.3282-2.1806-6.3086-7.678-8.6748-9.0961-2.8429-1.7039-6.5854-0.76675-8.2897 2.075-1.7039 2.8421-0.76623 6.5849 2.0759 8.2889 3.3946 2.0346 11.865 0.19138 14.889-1.2678"/>
   <path d="m125.84 147.39c-3.9627-1.2026-11.75-5.3199-15.319-5.6136-4.2858-0.35325-8.1065 2.8846-8.4594 7.1702-0.3533 4.2862 2.885 8.1056 7.172 8.4585 5.1194 0.42237 13.923-6.5812 16.607-10.015"/>
   <path d="m108.93 128.24c-3.8659 1.4825-12.54 3.015-15.538 4.9734-3.6005 2.3531-4.6264 7.2539-2.2733 10.854 2.3535 3.6 7.2548 4.6258 10.855 2.273 4.2996-2.8105 6.9465-13.742 6.9561-18.1"/>
   <path d="m90.401 118.01c-2.1404 3.5444-8.0461 10.079-9.2093 13.466-1.3962 4.0678 0.80349 8.5659 4.8717 9.962 4.0676 1.3964 8.5665-0.80288 9.9634-4.8702 1.6681-4.8582-2.9569-15.112-5.6258-18.558"/>
   <path d="m66.334 123.55c3.2625 1.2175 10.569 2.4385 13.104 4.0631 3.0452 1.9502 3.9467 6.0632 1.9952 9.1084-1.9513 3.0451-6.0642 3.9455-9.1098 1.9952-3.6373-2.3301-5.9472-11.503-5.9893-15.167"/>
   <path d="m59.91 151.52c3.0506-0.9875 9.02-4.2852 11.779-4.5635 3.3135-0.33475 6.3171 2.1179 6.6517 5.4309 0.33392 3.313-2.1184 6.3156-5.4319 6.6501-3.9577 0.39962-10.872-4.8976-12.998-7.5175"/>
  </g>
  <g fill="#e66e24">
   <path d="m68.289 136.9c2.7726 1.5835 9.2043 3.7686 11.259 5.6132 2.468 2.2158 2.6752 6.0711 0.45931 8.5391-2.2159 2.4671-6.072 2.6748-8.5402 0.45875-2.9474-2.6458-3.6828-11.289-3.1784-14.611"/>
   <path d="m108.79 137.67c-0.66835 4.0855-0.40931 12.889-1.7201 16.222-1.5742 4.0015-6.1656 6.0006-10.168 4.4268-4.0024-1.5744-6.0022-6.1648-4.428-10.166 1.88-4.7806 12.05-9.5896 16.316-10.482"/>
   <path d="m90.652 139.64c1.3013 3.9306 5.6107 11.612 5.9926 15.172 0.45969 4.2761-2.6826 8.1745-6.9592 8.6344-4.2767 0.45925-8.1756-2.6826-8.6348-6.9588-0.54933-5.1069 6.2345-14.08 9.6015-16.847"/>
  </g>
  <g fill="#e3540d">
   <path d="m11.996 210.15c-2.7896 1.5485-9.2426 3.6529-11.318 5.4702-2.4933 2.1838-2.7479 6.0328-0.56445 8.5255 2.1841 2.4924 6.034 2.7471 8.5267 0.56412 2.9779-2.6082 3.8182-11.234 3.3556-14.56"/>
   <path d="m-4.5435 197.54c-2.3594 3.4026-8.665 9.5528-10.039 12.859-1.6496 3.9712 0.26253 8.5989 4.2348 10.248 3.9726 1.6494 8.6008-0.2625 10.25-4.2339 1.97-4.7431-1.9998-15.268-4.4464-18.874"/>
   <path d="m-27.961 207.77c0.22779 4.1339-0.97176 12.86-0.0256 16.313 1.1369 4.1474 5.4884 6.626 9.6367 5.4889 4.148-1.1366 6.6269-5.4871 5.4896-9.6345-1.3579-4.954-10.955-10.823-15.101-12.167"/>
   <path d="m-43.374 222.27c2.7185 3.1231 7.1298 10.746 9.9974 12.89 3.4446 2.5759 8.4009 1.8602 10.977-1.5839 2.576-3.4438 1.8605-8.3995-1.5837-10.975-4.114-3.0766-15.293-1.8162-19.391-0.33162"/>
   <path d="m-45.473 246.87c2.1586-2.7322 5.5599-9.3118 7.8832-11.227 2.79-2.3008 6.9817-1.8981 9.2834 0.89188 2.301 2.79 1.8976 6.9814-0.89238 9.282-3.333 2.7481-12.773 2.1366-16.274 1.0534"/>
   <path d="m-20.811 261.56c-5e-3 -3.206-1.3158-9.8982-0.73535-12.609 0.69709-3.256 3.952-5.3631 7.2088-4.6665 3.2561 0.69688 5.3633 3.9515 4.6669 7.2078-0.83311 3.8885-7.9941 8.8466-11.14 10.068"/>
  </g>
  <g fill="#e66e24">
   <path d="m-32.171 249.1c2.3577-2.1534 6.4086-7.6058 8.7942-8.9957 2.8659-1.67 6.6001-0.68638 8.2703 2.1787 1.6705 2.8651 0.68634 6.599-2.1792 8.269-3.4226 1.9945-11.876 0.046-14.885-1.452"/>
   <path d="m-19.025 210.79c3.6852 1.8882 12.146 4.3395 14.917 6.6072 3.328 2.7244 3.8244 7.7066 1.0993 11.034-2.7253 3.3272-7.7082 3.8236-11.036 1.0988-3.9747-3.2538-5.4369-14.407-4.9801-18.74"/>
   <path d="m-22.702 228.66c4.1406-0.0344 12.774-1.7815 16.281-1.0551 4.2122 0.873 6.9604 5.0584 6.0876 9.2692-0.8725 4.2109-5.0592 6.9594-9.2707 6.0867-5.0301-1.0429-11.494-10.249-13.097-14.301"/>
  </g>
  <g fill="#e3540d">
   <path d="m163.79 199.8c3.0027 0.0578 9.2962-1.0379 11.823-0.44125 3.0363 0.7165 4.9453 3.8049 4.2291 6.8404-0.7161 3.0352-3.806 4.9444-6.842 4.2279-3.6254-0.85537-8.1284-7.6577-9.2104-10.627"/>
   <path d="m171.98 182.03c3.4619 1.7894 11.417 4.1234 14.018 6.267 3.1234 2.5754 3.5739 7.2662 0.99939 10.389-2.576 3.1231-7.268 3.5741-10.391 0.99925-3.7302-3.076-5.0701-13.577-4.626-17.655"/>
   <path d="m195.96 180.21c1.634 3.5372 6.4798 10.264 7.2155 13.552 0.8835 3.9505-1.6411 7.93-5.5918 8.8132-3.9507 0.88375-7.9306-1.6409-8.8145-5.5909-1.0554-4.7184 4.3359-13.829 7.1908-16.775"/>
   <path d="m215.17 185.47c-0.88312 3.7955-1.1897 12.08-2.6285 15.127-1.7284 3.6602-6.1649 5.2509-9.8259 3.5229-3.6604-1.7281-5.2512-6.164-3.5232-9.8246 2.0645-4.3714 11.915-8.2526 15.978-8.8249"/>
   <path d="m227.77 205c-2.9994-1.3199-8.7291-5.2909-11.506-5.8591-3.3351-0.68325-6.6429 1.4999-7.3262 4.8338-0.68284 3.3346 1.5008 6.6422 4.8352 7.325 3.9833 0.81575 11.563-3.8548 13.997-6.2996"/>
   <path d="m213.74 228.09c-1.4087-2.6681-3.271-8.8105-4.949-10.809-2.0153-2.3999-5.6513-2.7166-8.0515-0.7015-2.4006 2.015-2.7174 5.6501-0.70198 8.0504 2.407 2.8669 10.549 3.832 13.702 3.4604"/>
  </g>
  <g fill="#e66e24">
   <path d="m217.69 212.72c-2.9103-0.75163-8.6835-3.4991-11.28-3.6032-3.1189-0.12537-5.7902 2.3392-5.9157 5.4578-0.12502 3.1191 2.34 5.7898 5.4593 5.9152 3.7256 0.1495 9.8954-5.1978 11.737-7.7698"/>
   <path d="m189.87 186.66c-2.2316 3.1948-8.1862 8.9629-9.4896 12.071-1.5657 3.7325 0.2189 8.094 3.952 9.6595 3.7334 1.5654 8.0958-0.21863 9.6611-3.9515 1.87-4.4582-1.8325-14.377-4.1236-17.779"/>
   <path d="m200.8 199.9c-3.458 1.7975-11.408 4.1502-14.003 6.3004-3.1172 2.5826-3.5566 7.2747-0.97389 10.391 2.5831 3.1168 7.2758 3.5565 10.393 0.97375 3.7228-3.0845 5.0375-13.59 4.5839-17.666"/>
  </g>
  <g fill="#e3540d">
   <path d="m104.37 187.96c3.5352-0.44537 10.737-2.8074 13.807-2.5391 3.687 0.32212 6.4572 3.6226 6.1347 7.3091-0.32217 3.6861-3.6225 6.4562-7.3102 6.1341-4.4036-0.38513-10.854-7.6021-12.632-10.904"/>
   <path d="m110.96 165.69c4.3709 1.509 14.111 2.8899 17.531 4.9628 4.1076 2.4899 5.439 7.9206 2.9494 12.028-2.4905 4.1062-7.9221 5.4382-12.03 2.9484-4.9061-2.9739-8.2748-15.076-8.4506-19.939"/>
   <path d="m138.8 159.45c2.5244 3.8745 9.3638 10.944 10.79 14.68 1.7131 4.4876-0.57133 9.5914-5.0588 11.304-4.4875 1.7128-9.5924-0.57087-11.305-5.0581-2.0462-5.3592 2.727-16.979 5.5744-20.926"/>
   <path d="m162.26 162.35c-0.38843 4.607 0.66834 14.386-0.50045 18.21-1.4033 4.5931-6.3413 7.2191-10.935 5.816-4.5932-1.4039-7.2201-6.3401-5.8168-10.934 1.6762-5.4858 12.579-11.727 17.252-13.093"/>
   <path d="m180.39 183.13c-3.7475-1.0375-11.154-4.7208-14.512-4.9146-4.0328-0.23137-7.5437 2.8974-7.7755 6.9292-0.23179 4.0316 2.897 7.5426 6.9296 7.7741 4.8167 0.277 12.918-6.5028 15.357-9.7888"/>
   <path d="m167.86 212.63c-2.1107-2.8918-5.3476-9.7859-7.6596-11.846-2.7763-2.474-7.0996-2.2241-9.574 0.55237-2.4742 2.7769-2.2244 7.099 0.55245 9.5726 3.3167 2.9548 13.041 2.6965 16.681 1.7206"/>
  </g>
  <g fill="#e66e24">
   <path d="m169.88 193.91c-3.5455-0.38488-10.793-2.6242-13.861-2.3028-3.6838 0.38575-6.3986 3.7364-6.0127 7.42 0.3858 3.6832 3.7369 6.3981 7.421 6.0115 4.4004-0.46063 10.73-7.7941 12.453-11.129"/>
   <path d="m132.75 168.07c-2.0742 4.1329-8.0791 11.923-9.0785 15.795-1.1999 4.6506 1.6411 9.467 6.2924 10.666 4.6513 1.2005 9.4683-1.6409 10.668-6.2911 1.4331-5.5545-4.6102-16.567-7.8821-20.17"/>
   <path d="m147.85 181.74c-3.7533 2.7019-12.685 6.8238-15.365 9.792-3.2182 3.5652-2.9322 9.1499 0.63359 12.368 3.5658 3.2184 9.1508 2.9325 12.37-0.63237 3.8437-4.2584 3.5918-16.818 2.3617-21.527"/>
  </g>
  <g fill="#e3540d">
   <path d="m18.328 252.95c4.2356-1.1466 12.615-5.2565 16.404-5.4539 4.5514-0.23625 8.4931 3.3155 8.7295 7.8659 0.23641 4.5506-3.316 8.4919-7.8669 8.7285-5.4355 0.28175-14.534-7.4175-17.266-11.14"/>
   <path d="m33.952 237.46c5.6893-0.2225 17.482-2.992 22.332-2.1419 5.8253 1.0204 9.7812 6.6564 8.761 12.482-1.0209 5.8251-6.6577 9.7802-12.483 8.7594-6.9582-1.2189-16.234-13.597-18.61-19.099"/>
   <path d="m64.61 204.67c3.739 4.2934 13.287 11.747 15.664 16.059 2.8545 5.179 0.94089 11.793-4.2387 14.647-5.1797 2.8552-11.795 0.94075-14.65-4.2381-3.4101-6.1852 0.42606-21.17 3.225-26.468"/>
   <path d="m93.705 204.19c0.31366 5.6849 3.2723 17.43 2.5001 22.292-0.92663 5.8408-6.4993 9.8861-12.341 8.9589-5.842-0.92725-9.8879-6.4988-8.9601-12.34 1.1072-6.9758 13.337-16.447 18.801-18.911"/>
   <path d="m119.36 226.44c-4.7469-0.62438-14.408-3.8526-18.534-3.5146-4.9575 0.40575-8.704 4.8204-8.2982 9.7764 0.40544 4.9564 4.8203 8.703 9.7778 8.297 5.9198-0.48437 14.642-10.135 17.055-14.559"/>
   <path d="m109.12 264.56c-3.0678-3.166-8.1918-11.02-11.363-13.137-3.8089-2.5424-9.0378-1.5002-11.58 2.3081-2.5431 3.8082-1.5005 9.0368 2.3077 11.579 4.5495 3.0362 16.363 1.0616 20.636-0.74975"/>
   <path d="m127.58 240.59c-3.5565 0.11062-11.029-1.1001-14.016-0.35812-3.5874 0.89149-5.8068 4.5782-4.9152 8.1647 0.89163 3.5862 4.5785 5.8054 8.1655 4.9142 4.2842-1.064 9.5255-9.1874 10.765-12.721"/>
   <path d="m42.85 217.39c2.2478 5.2306 4.8238 17.065 7.6783 21.077 3.429 4.8185 10.219 5.9626 15.038 2.5341 4.8192-3.4281 5.9642-10.218 2.5349-15.036-4.0952-5.755-19.262-8.7988-25.252-8.5748"/>
   <path d="m6.7769 229.63c3.79 2.8535 10.55 10.348 14.274 12.068 4.4734 2.0661 9.8585 0.0854 11.925-4.3881 2.0668-4.4726 0.0854-9.8568-4.388-11.923-5.3433-2.4686-17.572 1.604-21.811 4.243"/>
  </g>
  <g fill="#b53000">
   <path d="m-99.916 304.6c2.7315 3.4328 7.0458 11.708 9.9814 14.112 3.5258 2.887 8.8054 2.3612 11.693-1.1636 2.887-3.5256 2.362-8.8045-1.1638-11.692-4.2108-3.448-16.103-2.6362-20.51-1.2561"/>
   <path d="m-96.508 326.33c4.4516 3.5511 12.309 12.768 16.72 14.957 5.2976 2.6295 11.825 0.43325 14.454-4.8632 2.6306-5.2969 0.43419-11.823-4.8636-14.452-6.3268-3.1409-21.136 1.3348-26.31 4.3582"/>
   <path d="m-91.244 370.9c5.5564-1.2441 17.664-1.5906 22.135-3.6556 5.3689-2.4804 7.7475-8.9419 5.2665-14.311-2.4807-5.3685-8.9428-7.746-14.312-5.2658-6.4129 2.9619-12.204 17.305-13.089 23.232"/>
   <path d="m-68.091 388.53c3.6218-4.3934 12.965-12.1 15.225-16.475 2.7141-5.2544 0.62334-11.814-4.6314-14.529-5.2547-2.7141-11.816-0.6225-14.531 4.6315-3.2422 6.2747 0.99552 21.151 3.9368 26.372"/>
   <path d="m-34.239 385.81c-4.1948-2.3089-13.889-5.4334-17.014-8.1504-3.7522-3.2638-4.1543-9.04-0.8895-12.792 3.264-3.7516 9.0403-4.1535 12.793-0.88937 4.4815 3.8972 5.7878 16.838 5.1106 21.832"/>
   <path d="m-19.896 349.04c-4.3471 0.73275-13.129 4.0234-16.938 3.8505-4.5752-0.20937-8.1695-4.1468-7.9612-8.7211 0.20915-4.5738 4.147-8.1681 8.7217-7.9598 5.4642 0.24987 13.81 8.8399 16.177 12.83"/>
   <path d="m-19.232 379.28c-2.7999-2.1958-9.5367-5.6484-11.502-8.0156-2.3613-2.8431-1.964-7.1274 0.87913-9.489 2.8439-2.3605 7.1295-1.964 9.4907 0.8795 2.8202 3.3959 2.2277 13.044 1.1325 16.625"/>
   <path d="m-101.23 347.77c4.9103-2.8821 13.999-10.889 18.676-12.428 5.6173-1.8496 11.766 1.2515 13.616 6.8686 1.8506 5.6169-1.2517 11.764-6.8694 13.614-6.7094 2.2096-20.731-4.326-25.422-8.0542"/>
   <path d="m-123.04 316.53c4.7437-0.0528 14.63-2.0841 18.65-1.2639 4.8288 0.98612 7.992 5.7728 7.0061 10.6-0.98627 4.8278-5.7732 7.9905-10.601 7.0048-5.7676-1.1778-13.204-11.704-15.055-16.341"/>
  </g>
  <g fill="#ba3800">
   <path d="m241.31 292.81c-2.8857 2.3985-7.9402 8.5762-10.817 10.078-3.4555 1.8032-7.7854 0.443-9.5885-3.0121-1.8034-3.455-0.44331-7.7839 3.0123-9.5871 4.1275-2.1536 13.943 0.59813 17.393 2.5218"/>
   <path d="m234.66 310.41c-4.3465 2.1975-12.532 8.5464-16.607 9.6111-4.8943 1.2789-9.9765-1.6972-11.255-6.5909-1.2791-4.8936 1.6975-9.9755 6.5918-11.254 5.8454-1.5271 17.465 4.8005 21.271 8.234"/>
   <path d="m222.49 346.82c-4.4361-2.0094-14.514-4.4096-17.898-6.9176-4.0637-3.0125-4.9287-8.8377-1.9158-12.901 3.0129-4.0631 8.8386-4.9281 12.902-1.9155 4.8536 3.5979 7.2024 16.617 6.9111 21.734"/>
   <path d="m200.03 357.54c-2.2673-4.3098-8.7475-12.392-9.8776-16.448-1.3573-4.8724 1.5373-10.001 6.4104-11.358 4.8731-1.3571 10.003 1.537 11.36 6.4094 1.621 5.8196-4.5201 17.538-7.8927 21.397"/>
   <path d="m172.16 349.37c3.9149-1.2025 12.577-2.1295 15.667-3.8604 3.7112-2.0789 5.0546-6.8454 2.975-10.556-2.0792-3.7105-6.8463-5.0537-10.557-2.9746-4.4326 2.4831-7.7815 13.092-8.0845 17.391"/>
   <path d="m166.55 316.08c3.513 1.3709 10.293 5.6569 13.513 6.1749 3.867 0.62262 7.5632-2.0484 8.1855-5.9149 0.62259-3.8664-2.0487-7.5621-5.9157-8.1846-4.6186-0.74338-13.104 4.9958-15.783 7.9246"/>
   <path d="m160.73 341.28c2.7273-1.3511 8.9696-3.0682 11.029-4.7076 2.4728-1.9694 2.8872-5.6265 0.9175-8.099-1.9696-2.4725-5.6273-2.8868-8.1001-0.91738-2.9534 2.3524-4.1388 10.534-3.846 13.724"/>
   <path d="m234.89 329.18c-3.6098-3.2686-9.8245-11.557-13.473-13.662-4.3815-2.5279-10.07-1.0021-12.599 3.3789-2.5282 4.381-1.0023 10.069 3.3794 12.597 5.2335 3.0192 18.113-0.01 22.692-2.3141"/>
   <path d="m258.59 306.83c-3.9634-0.87087-11.887-4.2944-15.396-4.3075-4.215-0.016-7.6982 3.4405-7.7141 7.6549-0.0156 4.2145 3.4414 7.6971 7.6563 7.7131 5.034 0.0187 13.096-7.4994 15.454-11.06"/>
  </g>
  <g fill="#b53000">
   <path d="m61.213 353.59c-3.9911 1.8219-11.589 7.2425-15.295 8.0539-4.4518 0.9755-8.9198-1.8865-9.895-6.3372-0.97489-4.451 1.8874-8.9181 6.3388-9.8932 5.3171-1.165 15.549 4.9494 18.851 8.1766"/>
   <path d="m48.323 371.42c-5.5775 1.1474-16.76 5.8015-21.685 5.7532-5.9142-0.0574-10.736-4.973-10.678-10.887 0.0578-5.9135 4.9737-10.734 10.888-10.677 7.0642 0.0691 18.234 10.77 21.475 15.811"/>
   <path d="m23.419 408.76c-4.3886-3.6272-15.024-9.4251-18.072-13.292-3.6615-4.6446-2.851-11.482 1.7938-15.143 4.6453-3.6609 11.484-2.8509 15.145 1.794 4.373 5.5468 3.031 20.956 1.1329 26.64"/>
   <path d="m-5.2083 413.98c-1.2364-5.5576-6.0699-16.663-6.1006-21.586-0.0376-5.9135 4.8007-10.813 10.715-10.85 5.9142-0.0371 10.815 4.8005 10.851 10.714 0.0448 7.0629-10.478 18.401-15.466 21.723"/>
   <path d="m-34.149 396.21c4.7858-0.15687 14.844 1.4535 18.861 0.44725 4.8242-1.2076 7.8017-6.1742 6.5933-10.998-1.2084-4.8242-6.1751-7.801-11-6.5924-5.7618 1.4429-12.793 12.385-14.454 17.143"/>
   <path d="m-30.262 356.93c3.5428 2.6238 9.8786 9.5379 13.352 11.11 4.1728 1.8871 9.1618 7e-3 11.05-4.1647 1.8878-4.1716 7e-3 -9.1602-4.1647-11.048-4.983-2.2546-16.317 1.6196-20.237 4.1025"/>
   <path d="m-44.565 383.59c3.491-0.68887 11.061-0.71225 13.887-1.9311 3.394-1.4641 4.983-5.4628 3.5186-8.8565-1.4642-3.3934-5.4638-4.9815-8.8574-3.5174-4.0534 1.7479-7.8999 10.616-8.548 14.305"/>
   <path d="m42.814 392.67c-3.0699-4.7944-7.5408-16.051-11.011-19.544-4.1682-4.1952-11.055-4.2184-15.25-0.05-4.1962 4.168-4.2182 11.053-0.0503 15.249 4.9793 5.0106 20.44 5.5418 26.312 4.3451"/>
   <path d="m76.41 374.71c-4.2045-2.1975-12.095-8.4898-16.05-9.5804-4.7506-1.31-9.7409 1.5221-11.051 6.2724-1.3102 4.7501 1.5228 9.7391 6.2733 11.049 5.6747 1.5654 17.076-4.4465 20.828-7.7408"/>
   <path d="m259.12 321.76c-2.7219 3.4412-7.011 11.729-9.9385 14.142-3.5172 2.897-8.799 2.3875-11.697-1.1289-2.8978-3.517-2.3882-8.7976 1.1294-11.695 4.2008-3.4611 16.095-2.684 20.506-1.3178"/>
   <path d="m255.77 343.5c-4.4404 3.5639-12.271 12.804-16.675 15.007-5.2895 2.6454-11.823 0.46875-14.468-4.8204-2.6459-5.2888-0.46919-11.821 4.8206-14.466 6.3179-3.1595 21.14 1.271 26.323 4.2796"/>
   <path d="m250.64 388.09c-5.5603-1.2264-17.669-1.5375-22.146-3.589-5.3759-2.464-7.7736-8.9189-5.3092-14.294 2.464-5.3765 8.9198-7.7732 14.296-5.3089 6.4218 2.9431 12.256 17.269 13.159 23.192"/>
   <path d="m227.54 405.78c-3.6353-4.3824-13.002-12.062-15.275-16.429-2.7305-5.2459-0.65846-11.812 4.5885-14.542 5.2462-2.7301 11.814-0.65913 14.544 4.5871 3.261 6.2656-0.93238 21.154-3.8574 26.384"/>
   <path d="m193.68 403.17c4.1871-2.3215 13.873-5.4744 16.988-8.201 3.7429-3.2754 4.1275-9.052 0.85187-12.794-3.2755-3.7425-9.053-4.1269-12.796-0.85187-4.4705 3.9115-5.7378 16.856-5.0447 21.847"/>
   <path d="m179.23 366.44c4.3489 0.72 13.142 3.9841 16.95 3.7995 4.5736-0.22213 8.1564-4.1709 7.9342-8.7441-0.22228-4.5738-4.1711-8.156-8.7455-7.9331-5.4631 0.265-13.783 8.8805-16.139 12.878"/>
   <path d="m178.66 396.68c2.7929-2.205 9.5194-5.677 11.478-8.0504 2.3528-2.8506 1.9432-7.1338-0.90788-9.4861-2.851-2.3524-7.1348-1.9424-9.4875 0.9075-2.8099 3.4048-2.1887 13.051-1.0827 16.629"/>
   <path d="m260.56 364.92c-4.9194-2.867-14.032-10.847-18.713-12.373-5.6237-1.8334-11.763 1.2872-13.596 6.909-1.8325 5.6225 1.2874 11.761 6.9104 13.594 6.7166 2.1898 20.718-4.387 25.398-8.1297"/>
   <path d="m282.27 333.63c-4.7449-0.0389-14.636-2.0409-18.654-1.2079-4.8252 1-7.9746 5.7957-6.9745 10.621 1.0008 4.8245 5.7973 7.9731 10.622 6.9729 5.7637-1.1949 13.169-11.743 15.006-16.386"/>
   <path d="m76.232 367.39c4.305 0.84513 12.954 4.3532 16.747 4.2825 4.5563-0.0855 8.2375-3.9062 8.1522-8.4621-0.0854-4.5556-3.9067-8.2365-8.4633-8.1511-5.4419 0.10212-13.974 8.4246-16.436 12.331"/>
   <path d="m92.911 381.73c5.6913-0.17937 17.649 1.7508 22.428 0.5605 5.7392-1.429 9.2872-7.33 7.8576-13.068-1.4292-5.7384-7.331-9.2864-13.07-7.857-6.8548 1.7072-15.233 14.709-17.215 20.365"/>
   <path d="m125.81 412.27c3.4265-4.5475 12.424-12.656 14.491-17.125 2.4825-5.3678 0.10626-11.83-5.2622-14.312-5.3681-2.4818-11.832-0.10625-14.314 5.2615-2.9647 6.4109 1.9194 21.087 5.0857 26.176"/>
   <path d="m154.86 410.7c-0.0879-5.6926 2.0342-17.617 0.92063-22.413-1.3371-5.7608-7.1811-9.4025-12.943-8.0656-5.7614 1.3372-9.4038 7.1805-8.0668 12.941 1.5972 6.8801 14.465 15.465 20.089 17.537"/>
   <path d="m178.88 386.7c-4.6913 0.95837-14.1 4.8596-18.241 4.8139-4.9733-0.0549-9.0225-4.1939-8.9675-9.1661 0.0549-4.9728 4.1944-9.0212 9.1678-8.9664 5.9397 0.0652 15.321 9.0761 18.04 13.319"/>
   <path d="m165.98 349.4c-2.8365 3.3746-7.3935 11.571-10.407 13.906-3.6198 2.8049-8.9091 2.1345-11.715-1.485-2.8053-3.6191-2.1347-8.9079 1.485-11.713 4.3234-3.3501 16.247-2.2139 20.637-0.70862"/>
   <path d="m186.08 372c-3.5558 0.141-10.924 1.8759-13.955 1.3465-3.6413-0.636-6.1155-4.1566-5.4794-7.7974 0.63572-3.6408 4.1572-6.1144 7.7981-5.4788 4.349 0.75975 10.15 8.4922 11.637 11.93"/>
   <path d="m103.2 401.12c1.8733-5.3766 3.6069-17.363 6.1716-21.566 3.0798-5.0485 9.7728-6.6692 14.822-3.5894 5.0492 3.0795 6.6701 9.7714 3.5901 14.82-3.6792 6.0296-18.594 10.136-24.584 10.336"/>
   <path d="m66.355 391.46c3.5793-3.1139 9.7926-11.066 13.387-13.045 4.3164-2.3771 9.8276-0.78088 12.205 3.5351 2.3776 4.3161 0.78136 9.8268-3.5352 12.204-5.156 2.8392-17.642-0.36038-22.057-2.6936"/>
  </g>
  <g fill="#ba3800">
   <path d="m13.073 327.09c2.952 0.61975 8.8655 3.1089 11.474 3.0934 3.1331-0.0174 5.6978-2.6111 5.6797-5.7438-0.0181-3.1326-2.6115-5.6969-5.7452-5.6785-3.7413 0.0213-9.6806 5.6654-11.409 8.3289"/>
   <path d="m24.41 337.1c3.9134-0.0722 12.117 1.3614 15.412 0.586 3.9581-0.9315 6.4494-4.956 5.518-8.9135-0.93125-3.9575-4.9563-6.4485-8.9144-5.518-4.7272 1.113-10.603 9.9755-12.016 13.846"/>
   <path d="m46.75 358.39c2.396-3.0958 8.6537-8.5886 10.114-11.642 1.7549-3.668 0.17865-8.1315-3.4889-9.8855-3.6685-1.7542-8.1323-0.17888-9.8869 3.4888-2.095 4.3806 1.1312 14.513 3.2617 18.039"/>
   <path d="m66.737 357.57c-0.01-3.914 1.5557-12.092 0.83349-15.398-0.86812-3.9714-4.8524-6.5271-8.8248-5.6598-3.9722 0.86737-6.5284 4.8515-5.6612 8.8235 1.0369 4.7435 9.8056 10.76 13.652 12.235"/>
   <path d="m83.464 341.28c-3.233 0.61687-9.7359 3.2145-12.582 3.1465-3.418-0.0822-6.1641-2.964-6.0818-6.3815 0.0821-3.4175 2.9637-6.1636 6.382-6.0818 4.0821 0.0981 10.45 6.3761 12.282 9.3168"/>
   <path d="m74.929 315.53c-1.9803 2.2942-5.1864 7.8878-7.2783 9.4664-2.5132 1.8952-6.1435 1.3875-8.0395-1.1258-1.8959-2.5126-1.3873-6.1428 1.1255-8.038 3.0017-2.2645 11.188-1.3766 14.192-0.30262"/>
   <path d="m88.545 331.24c-2.4455 0.0649-7.5259 1.192-9.6055 0.80075-2.4972-0.46975-4.1661-2.9115-3.6969-5.4085 0.46994-2.4972 2.9123-4.1658 5.41-3.6966 2.9824 0.56125 6.9005 5.9282 7.8924 8.3044"/>
   <path d="m31.312 350.52c1.3353-3.6782 2.6341-11.903 4.4346-14.769 2.1624-3.4428 6.7776-4.4972 10.221-2.3348 3.4436 2.1618 4.4979 6.7762 2.3351 10.219-2.5827 4.1124-12.871 6.8014-16.991 6.8846"/>
   <path d="m6.0692 343.55c2.4877-2.1086 6.8303-7.5196 9.3184-8.8476 2.9884-1.5956 6.7623-0.44938 8.3584 2.5388 1.5954 2.9884 0.44857 6.7616-2.5395 8.3569-3.5698 1.9056-12.124-0.405-15.137-2.048"/>
   <path d="m155.25 316.83c-3.5683 0.91312-10.651 4.2648-13.834 4.3856-3.8234 0.14525-7.0905-2.8829-7.2354-6.7054-0.14489-3.8225 2.8833-7.0888 6.7063-7.234 4.5662-0.17363 12.113 6.3966 14.363 9.5538"/>
   <path d="m141.95 329.65c-4.7784 0.11975-14.71 2.306-18.772 1.5356-4.8784-0.92512-8.133-5.7025-7.2078-10.58 0.92563-4.8781 5.7037-8.1319 10.582-7.2068 5.8264 1.1051 13.468 11.605 15.397 16.251"/>
   <path d="m115.83 356.81c-3.0881-3.6481-11.015-10.017-12.96-13.664-2.3361-4.3812-0.65172-9.911 3.7298-12.246 4.382-2.3354 9.9124-0.65162 12.248 3.7296 2.7901 5.2325-0.60596 17.766-3.0178 22.181"/>
   <path d="m91.398 356.87c-0.19665-4.7756-2.5426-14.669-1.8371-18.742 0.84662-4.8919 5.572-8.2222 10.465-7.3754 4.8923 0.84675 8.2232 5.5718 7.3766 10.463-1.0118 5.8429-11.389 13.65-16.004 15.654"/>
   <path d="m70.123 337.89c3.9776 0.58037 12.049 3.403 15.518 3.1681 4.1657-0.2825 7.3625-3.9441 7.0805-8.1092-0.28242-4.1651-3.9446-7.3619-8.1104-7.0795-4.9754 0.337-12.41 8.3356-14.488 12.021"/>
   <path d="m79.164 306.02c2.538 2.694 6.7471 9.3476 9.384 11.161 3.1671 2.1791 7.5688 1.366 9.748-1.801 2.1794-3.167 1.3661-7.5681-1.8014-9.7474-3.783-2.6018-13.723-1.0831-17.331 0.387"/>
   <path d="m63.389 325.92c2.9872-0.0506 9.2456 1.0531 11.761 0.46525 3.0218-0.70613 4.9283-3.7746 4.2217-6.7958-0.70598-3.0214-3.7749-4.9272-6.7967-4.2214-3.6086 0.84325-8.1036 7.6004-9.1863 10.552"/>
   <path d="m134.24 346.39c-1.8258-4.4171-3.8489-14.382-6.1978-17.783-2.8219-4.0851-8.5087-5.1255-12.594-2.3039-4.0856 2.8211-5.1261 8.5075-2.3044 12.592 3.3701 4.8791 16.066 7.6121 21.097 7.4949"/>
   <path d="m164.67 336.54c-3.1481-2.4395-8.7341-8.8098-11.841-10.298-3.7313-1.7872-8.2748-0.18787-10.062 3.5429-1.7878 3.7305-0.18777 8.2734 3.5435 10.061 4.4564 2.1351 14.77-1.1402 18.359-3.306"/>
  </g>
  <g fill="#bf3d00">
   <path d="m154 293.41c2.952-0.91562 9.4878-1.6314 11.816-2.9434 2.7964-1.5765 3.801-5.1761 2.2248-7.9721-1.5764-2.7964-5.1765-3.8009-7.9732-2.2249-3.34 1.8826-5.8472 9.8951-6.0677 13.14"/>
   <path d="m169.14 296.72c3.469-2.014 11.529-4.815 14.093-7.15 3.0807-2.8049 3.3071-7.65 0.5022-10.73-2.8053-3.0801-7.6511-3.3069-10.732-0.502-3.6792 3.3501-4.5261 14.213-3.8638 18.382"/>
   <path d="m199.75 304.66c0.60396-3.9649 3.4712-12 3.2582-15.462-0.25591-4.1581-3.89-7.3708-8.0486-7.115-4.1587 0.25587-7.3715 3.8899-7.1156 8.0476 0.30541 4.9662 8.2414 12.433 11.906 14.529"/>
   <path d="m217.24 293.97c-1.9583-3.5-4.6299-11.603-6.9242-14.204-2.7553-3.1245-7.5964-3.4289-10.722-0.67387-3.1253 2.7549-3.4297 7.5958-0.6741 10.721 3.2908 3.7318 14.14 4.753 18.32 4.1576"/>
   <path d="m224.11 271.06c-2.5885 2.1625-7.1178 7.7269-9.7001 9.083-3.1019 1.6285-6.9966 0.41588-8.6253-2.6855-1.6291-3.1015-0.41606-6.9956 2.6859-8.6244 3.7046-1.945 12.534 0.50588 15.64 2.2269"/>
   <path d="m203.64 252.25c-0.63046 3.0409-0.71472 9.6462-1.8024 12.101-1.3066 2.9495-4.8103 4.302-7.7598 2.9959-2.9499-1.3064-4.3025-4.8096-2.9963-7.7588 1.5603-3.5224 9.3333-6.8042 12.559-7.3385"/>
   <path d="m223.66 259.54c-2.1574 1.2764-6.146 4.815-8.2024 5.5004-2.4705 0.82313-5.1817-0.533-6.005-3.0026-0.82287-2.47 0.53295-5.181 3.0033-6.0041 2.9503-0.983 9.1328 1.8722 11.204 3.5064"/>
   <path d="m182.01 305.3c-0.63646-3.9596-3.57-11.971-3.3855-15.435 0.22153-4.1602 3.8292-7.4024 7.9899-7.1809 4.1605 0.22138 7.4034 3.8289 7.1815 7.9888-0.26467 4.9684-8.1386 12.5-11.786 14.627"/>
   <path d="m155.93 311.63c1.1779-3.127 2.3715-10.135 3.9379-12.564 1.8814-2.9172 5.8323-3.7698 8.7496-1.8886 2.9177 1.8811 3.7707 5.8316 1.8889 8.7484-2.2472 3.4841-11.059 5.6746-14.576 5.7038"/>
   <path d="m144.04 213.62c2.5431 1.756 7.1423 6.4544 9.6119 7.4752 2.9669 1.226 6.4193-0.20663 7.6454-3.1726 1.2266-2.9665-0.20628-6.4184-3.1731-7.6448-3.5435-1.4644-11.395 1.5112-14.084 3.3421"/>
   <path d="m150.78 227.57c3.7266 1.4848 10.907 6.0939 14.328 6.6689 4.1087 0.691 8.0601-2.1228 8.7511-6.2305 0.69072-4.1085-2.123-8.0592-6.2318-8.7502-4.9074-0.82487-13.976 5.2165-16.847 8.3119"/>
   <path d="m163.43 256.55c3.492-1.9736 11.584-4.6804 14.176-6.9852 3.1129-2.7688 3.3965-7.6108 0.62734-10.723-2.7691-3.1128-7.6122-3.3955-10.725-0.62675-3.7182 3.3066-4.6917 14.159-4.0778 18.335"/>
   <path d="m182.64 263.7c1.544-3.7016 6.2689-10.806 6.8987-14.217 0.7566-4.0965-1.9934-8.0919-6.0905-8.8488-4.097-0.75687-8.0933 1.9931-8.8499 6.0899-0.904 4.8926 4.9921 14.056 8.0416 16.976"/>
   <path d="m204.91 254.95c-3.2996-0.7005-10.474-0.82663-13.135-2.0204-3.1966-1.434-4.6477-5.2455-3.2136-8.4415 1.4338-3.1965 5.2462-4.6471 8.4432-3.2131 3.8177 1.7125 7.342 10.17 7.9055 13.675"/>
   <path d="m207.07 227.24c-2.7815 1.382-8.0299 5.3944-10.633 6.0549-3.1269 0.79362-6.3544-1.1268-7.1481-4.2528-0.79386-3.1269 1.1269-6.3538 4.2536-7.1475 3.7345-0.94788 11.116 3.1386 13.528 5.3454"/>
   <path d="m213.69 247.49c-2.3361-0.9085-7.5831-1.8605-9.3918-3.0546-2.1731-1.4348-2.7805-4.4044-1.3459-6.5768 1.4348-2.1724 4.405-2.7801 6.578-1.3454 2.5947 1.7131 4.1665 8.3389 4.1597 10.977"/>
   <path d="m151.97 242.99c2.722-2.9456 7.2134-10.2 10.052-12.193 3.4095-2.3946 8.1879-1.5594 10.583 1.8496 2.3948 3.409 1.5592 8.1867-1.8503 10.581-4.0718 2.8598-14.86 1.3181-18.784-0.23737"/>
   <path d="m130.89 226.39c3.1872-1.0045 9.4375-4.393 12.315-4.6609 3.4566-0.32175 6.567 2.2592 6.8885 5.7154 0.32179 3.4561-2.2592 6.5665-5.7158 6.8875-4.1285 0.384-11.293-5.1935-13.488-7.942"/>
  </g>
  <g fill="#bf3300">
   <path d="m-97.375 288.08c3.9911 1.8216 11.588 7.2426 15.295 8.0544 4.4516 0.97475 8.9194-1.8872 9.8943-6.338 0.97527-4.4506-1.8871-8.9185-6.3381-9.8935-5.3171-1.164-15.549 4.9492-18.851 8.1771"/>
   <path d="m-84.485 305.91c5.5777 1.1466 16.761 5.8011 21.684 5.7532 5.9143-0.0581 10.736-4.9738 10.679-10.887-0.0578-5.9131-4.9741-10.734-10.889-10.677-7.0636 0.0687-18.233 10.77-21.474 15.811"/>
   <path d="m-59.582 343.25c4.3894-3.6272 15.024-9.4252 18.072-13.292 3.6608-4.6442 2.8506-11.482-1.7942-15.143-4.6452-3.6605-11.484-2.8505-15.144 1.794-4.3731 5.5475-3.0314 20.956-1.1337 26.641"/>
   <path d="m-30.954 348.47c1.2364-5.5576 6.0706-16.663 6.101-21.586 0.0376-5.9135-4.8011-10.813-10.715-10.85-5.9142-0.0375-10.814 4.8001-10.852 10.714-0.0446 7.0625 10.477 18.401 15.466 21.722"/>
   <path d="m-2.014 330.7c-4.7856-0.15725-14.844 1.4528-18.86 0.44713-4.8242-1.2086-7.8017-6.1741-6.5941-10.998 1.2088-4.8235 6.1755-7.8006 11-6.5926 5.7622 1.4431 12.794 12.386 14.454 17.144"/>
   <path d="m-5.9012 291.42c-3.5424 2.6238-9.8786 9.5386-13.352 11.11-4.1721 1.8882-9.1614 8e-3 -11.05-4.164-1.8881-4.1716-7e-3 -9.1602 4.1651-11.048 4.9836-2.2539 16.317 1.6198 20.236 4.1029"/>
   <path d="m8.4024 318.08c-3.4906-0.68813-11.061-0.71188-13.886-1.9308-3.3944-1.4638-4.9827-5.4624-3.519-8.8561 1.4642-3.3934 5.4638-4.9822 8.8577-3.5181 4.0533 1.7486 7.9001 10.617 8.5476 14.305"/>
   <path d="m-78.977 327.16c3.0704-4.7945 7.5409-16.051 11.011-19.544 4.1685-4.1949 11.055-4.218 15.251-0.05 4.1958 4.1684 4.2181 11.054 0.0495 15.249-4.979 5.0102-20.439 5.5414-26.312 4.3445"/>
   <path d="m-112.57 309.2c4.2051-2.1975 12.095-8.4894 16.051-9.58 4.7512-1.3104 9.7409 1.5225 11.051 6.272 1.3101 4.7509-1.5225 9.7399-6.2733 11.05-5.6744 1.5646-17.076-4.4465-20.828-7.7415"/>
  </g>
  <g fill="#e3540d">
   <path d="m-103.79 287c3.2096-0.86888 9.559-3.9834 12.43-4.133 3.4487-0.17888 6.4355 2.5126 6.6148 5.9606 0.17902 3.4482-2.5129 6.4346-5.9613 6.6142-4.119 0.21338-11.013-5.6208-13.084-8.4419"/>
   <path d="m-91.955 275.26c4.311-0.16863 13.247-2.2674 16.922-1.6232 4.4141 0.77325 7.4118 5.0439 6.6386 9.4582-0.77361 4.4142-5.045 7.4111-9.4595 6.6376-5.2725-0.92375-12.301-10.304-14.102-14.473"/>
   <path d="m-68.724 250.42c2.8333 3.2535 10.068 8.9015 11.87 12.169 2.1632 3.9242 0.71297 8.9359-3.2121 11.099-3.9248 2.1635-8.9375 0.71287-11.101-3.2118-2.5842-4.6866 0.32279-16.042 2.4437-20.056"/>
   <path d="m-46.677 250.05c0.23779 4.308 2.4796 13.208 1.8945 16.892-0.70197 4.426-4.9248 7.4912-9.3511 6.7886-4.4269-0.70262-7.4929-4.9245-6.79-9.3504 0.83924-5.2859 10.107-12.463 14.247-14.331"/>
   <path d="m-27.235 266.91c-3.597-0.473-10.918-2.9192-14.045-2.6631-3.7564 0.30762-6.5954 3.6528-6.2881 7.408 0.30729 3.7559 3.653 6.5951 7.4094 6.2872 4.4858-0.36712 11.095-7.6801 12.924-11.032"/>
   <path d="m-34.992 295.8c-2.3247-2.3991-6.2076-8.3505-8.6103-9.9549-2.8864-1.9265-6.8488-1.1368-8.7756 1.749-1.9268 2.886-1.1368 6.8478 1.7489 8.7739 3.4475 2.301 12.4 0.80475 15.637-0.568"/>
   <path d="m-21.007 277.64c-2.6946 0.084-8.3573-0.83337-10.62-0.27137-2.7185 0.67575-4.4004 3.4692-3.7245 6.1874 0.67547 2.7174 3.4694 4.399 6.1875 3.7236 3.2465-0.8065 7.218-6.9619 8.1574-9.6396"/>
   <path d="m-85.212 260.06c1.7031 3.9636 3.655 12.931 5.8182 15.972 2.5984 3.6514 7.7436 4.5184 11.396 1.9205 3.6519-2.598 4.5194-7.7429 1.9208-11.394-3.1033-4.3608-14.596-6.6675-19.135-6.4978"/>
   <path d="m-112.55 269.33c2.8719 2.1625 7.9939 7.8412 10.816 9.1449 3.3897 1.5658 7.4704 0.0649 9.0364-3.325 1.566-3.3892 0.0649-7.4694-3.3251-9.0351-4.0488-1.8705-13.316 1.2154-16.528 3.2152"/>
   <path d="m104.82 307.08c-3.535-0.69738-10.635-3.5855-13.75-3.5305-3.7419 0.0662-6.768 3.2014-6.7017 6.9424 0.0663 3.7418 3.2014 6.7674 6.9434 6.7011 4.4691-0.0794 11.482-6.9066 13.508-10.113"/>
   <path d="m91.134 295.28c-4.6739 0.14275-14.493-1.4521-18.418-0.47913-4.7143 1.1694-7.6326 6.0124-6.4639 10.726 1.1695 4.7132 6.0131 7.6319 10.728 6.4626 5.6307-1.3964 12.522-12.068 14.154-16.71"/>
   <path d="m64.145 270.17c-2.8178 3.7315-10.214 10.383-11.915 14.051-2.0423 4.4061-0.0968 9.7154 4.31 11.758 4.4068 2.0428 9.7168 0.0971 11.76-4.309 2.4396-5.2629-1.5588-17.319-4.1547-21.5"/>
   <path d="m40.282 271.44c0.068 4.6751-1.6844 14.466-0.7746 18.405 1.0935 4.7314 5.8897 7.7269 10.622 6.6341 4.7324-1.0934 7.7283-5.8886 6.6351-10.621-1.3058-5.6516-11.866-12.712-16.483-14.419"/>
   <path d="m20.535 291.14c3.8532-0.7835 11.584-3.9795 14.984-3.9384 4.0842 0.0489 7.4062 3.4511 7.3569 7.5348-0.0489 4.0834-3.452 7.4049-7.5359 7.356-4.8783-0.0593-12.574-7.4665-14.805-10.952"/>
   <path d="m31.1 321.78c2.3318-2.7691 6.0809-9.4961 8.5576-11.411 2.975-2.301 7.3188-1.7455 9.619 1.2288 2.3011 2.9746 1.746 7.3174-1.2293 9.618-3.553 2.7475-13.344 1.8042-16.947 0.5645"/>
   <path d="m14.609 303.2c2.9204-0.113 8.9725-1.5314 11.462-1.0941 2.9899 0.5255 5.0183 3.4189 4.4935 6.408-0.52557 2.9891-3.4194 5.0178-6.4085 4.4926-3.5708-0.62725-8.3284-6.9821-9.5467-9.8065"/>
   <path d="m82.698 279.35c-1.543 4.4136-2.9764 14.256-5.0857 17.705-2.5339 4.1435-8.0318 5.4691-12.175 2.936-4.1441-2.5331-5.4699-8.0302-2.9357-12.174 3.0257-4.9489 15.277-8.3084 20.197-8.4675"/>
   <path d="m112.95 287.32c-2.9424 2.5544-8.0511 9.0796-11.004 10.702-3.547 1.9485-8.0714 0.63325-10.021-2.9129-1.9486-3.5465-0.63359-8.0706 2.9138-10.019 4.2362-2.3276 14.487 0.31012 18.111 2.2299"/>
   <path d="m99.922 302.2c3.0654-0.38587 9.3103-2.4329 11.972-2.2001 3.1966 0.28 5.5982 3.1422 5.3182 6.3386-0.28004 3.1961-3.1423 5.5974-6.3393 5.3175-3.818-0.3345-9.4098-6.593-10.951-9.456"/>
   <path d="m112.33 292.93c3.9892 0.40075 12.483-0.37738 15.783 0.68912 3.9629 1.2809 6.1704 5.5981 4.8889 9.5602-1.281 3.9621-5.5988 6.1695-9.5615 4.8882-4.7332-1.5304-9.991-11.069-11.11-15.138"/>
   <path d="m136.92 273.06c2.1876 3.3598 8.117 9.4908 9.3531 12.73 1.4846 3.8909-0.49682 8.3161-4.3879 9.8004-3.8914 1.4842-8.3173-0.49637-9.8019-4.3872-1.7729-4.6471 2.3666-14.721 4.8367-18.143"/>
   <path d="m157.25 275.57c-0.33668 3.995 0.57795 12.474-0.43594 15.79-1.2177 3.9824-5.4989 6.2585-9.4818 5.0411-3.9828-1.2175-6.2594-5.4985-5.0421-9.4809 1.4543-4.7561 10.909-10.166 14.96-11.35"/>
   <path d="m172.97 293.59c-3.2492-0.89962-9.6706-4.095-12.582-4.2625-3.4966-0.202-6.5412 2.5104-6.7428 6.0062-0.20166 3.4961 2.5111 6.5402 6.0075 6.7418 4.1761 0.24063 11.201-5.6366 13.317-8.4855"/>
   <path d="m162.1 319.17c-1.8298-2.5072-4.635-8.4855-6.6394-10.271-2.4072-2.1454-6.1555-1.9296-8.3009 0.477-2.1458 2.4072-1.93 6.155 0.47732 8.3001 2.8754 2.5626 11.307 2.34 14.463 1.4942"/>
   <path d="m177.32 304.26c-2.4912-0.27075-7.5837-1.8454-9.7388-1.62-2.589 0.271-4.497 2.6249-4.226 5.2132 0.27079 2.588 2.6252 4.4961 5.2137 4.2254 3.0919-0.32388 7.5404-5.4759 8.751-7.8186"/>
   <path d="m120.5 279.8c1.056 3.8675 1.6954 12.372 3.294 15.448 1.9196 3.6956 6.5433 5.1572 10.239 3.2375 3.6961-1.9198 5.158-6.5428 3.238-10.238-2.2932-4.4135-12.573-8.0185-16.771-8.448"/>
   <path d="m94.145 284.81c2.3645 2.3599 6.3453 8.2471 8.7745 9.8108 2.9177 1.8782 6.8665 1.0232 8.7451-1.8942 1.8789-2.9172 1.0234-6.8655-1.8945-8.7439-3.4846-2.2436-12.411-0.59875-15.625 0.82738"/>
  </g>
 </g>
</svg>
